# xmcd
#
# Track frame offsets: 
#        150
#        12550
#        23492
#        38777
#        51477
#        64060
#        77780
#        89215
#        102782
#        116125
#        127907
#        140047
#        152765
#        164967
#        180172
#        193662
#        209437
#        220572
#        231777
#        245127
#        259045
#        270015
#        285325
#
# Disc length: 3972 seconds
#
# Revision: 3
# Processed by: cddbd v1.4PL0 Copyright (c) Steve Scherf et al.
# Submitted via: ExactAudioCopy v0.90b2
#
DISCID=4a0f8217
DTITLE=Conway Twitty - The Conway Twitty Collection - Disc 2
DYEAR=1900
DGENRE=Country
TTITLE0=I Wonder What She'll Think About Me Leaving
TTITLE1=Lead Me On (With Loretta Lynn)
TTITLE2=(Lost Her Love) On Our Last Date
TTITLE3=I Can't Stop Loving You
TTITLE4=She Needs Someone To Hold Her (When She Cries)
TTITLE5=Baby's Gone
TTITLE6=Louisiana Woman, Mississippi Man (With Loretta Lynn)
TTITLE7=You've Never Been This Far Before
TTITLE8=There's A Honky Tonk Angel (Who'll Take Me Back In)
TTITLE9=I'm Not Through Loving You Yet
TTITLE10=As Soon As I Hang Up The Phone (With Loretta Lynn)
TTITLE11=I See The Want To In Your Eyes
TTITLE12=Linda On My Mind
TTITLE13=Touch The Hand
TTITLE14=Feelins' (With Loretta Lynn)
TTITLE15=I Just Had You On My Mind (Previously Unreleased)
TTITLE16=Hello Darlin' (In Russian)
TTITLE17=This Time I've Hurt Her More Than She Loves Me
TTITLE18=After All The Good Is Gone
TTITLE19=The Games That Daddies Play
TTITLE20=(I Can't Believe) She Gives It All To Me
TTITLE21=Play Guitar Play
TTITLE22=No Relief In Sight (Previously Unreleased)
EXTD=
EXTT0=
EXTT1=
EXTT2=
EXTT3=
EXTT4=
EXTT5=
EXTT6=
EXTT7=
EXTT8=
EXTT9=
EXTT10=
EXTT11=
EXTT12=
EXTT13=
EXTT14=
EXTT15=
EXTT16=
EXTT17=
EXTT18=
EXTT19=
EXTT20=
EXTT21=
EXTT22=
PLAYORDER=
